<svg width="2080" height="508" viewBox="0 0 2080 508" fill="none" xmlns="http://www.w3.org/2000/svg">
<rect width="2080" height="508" fill="white"/>
<path d="M356.323 228.94V273.853H380.55V284H344.131V228.94H356.323ZM427.109 239.087H424.356L408.624 284H396.118L416.018 228.94H435.683L455.504 284H442.998L427.109 239.087ZM409.411 261.976H441.503V272.123H409.411V261.976ZM465.608 228.94H511.859V239.087H494.79V284H482.677V239.087H465.608V228.94ZM532.498 228.94H544.69V284H532.498V228.94ZM565.402 228.94H611.652V239.087H594.584V284H582.47V239.087H565.402V228.94ZM632.055 228.94H644.247V263.313C644.247 265.62 644.719 267.613 645.663 269.291C646.607 270.917 647.892 272.149 649.517 272.988C651.195 273.775 653.136 274.168 655.338 274.168C657.593 274.168 659.559 273.775 661.237 272.988C662.968 272.149 664.305 270.917 665.249 269.291C666.193 267.613 666.665 265.62 666.665 263.313V228.94H678.857V262.369C678.857 266.092 678.201 269.343 676.89 272.123C675.632 274.902 673.875 277.209 671.62 279.045C669.418 280.88 666.901 282.27 664.069 283.213C661.237 284.105 658.275 284.551 655.181 284.551C651.038 284.551 647.21 283.738 643.697 282.112C640.183 280.487 637.352 278.048 635.202 274.797C633.104 271.493 632.055 267.351 632.055 262.369V228.94ZM723.136 228.94C729.061 228.94 734.174 230.093 738.474 232.401C742.827 234.656 746.183 237.88 748.542 242.076C750.954 246.218 752.161 251.042 752.161 256.549C752.161 262.055 750.954 266.879 748.542 271.022C746.183 275.112 742.827 278.31 738.474 280.618C734.174 282.873 729.061 284 723.136 284H701.584V228.94H723.136ZM722.507 273.853C727.96 273.853 732.208 272.306 735.249 269.212C738.291 266.119 739.811 261.897 739.811 256.549C739.811 251.147 738.291 246.9 735.249 243.806C732.208 240.66 727.96 239.087 722.507 239.087H713.776V273.853H722.507ZM812.833 239.087H784.988V251.278H805.833V260.953H784.988V273.853H812.833V284H772.796V228.94H812.833V239.087ZM1180.38 268.426C1180.64 269.894 1181.22 271.179 1182.11 272.28C1183 273.381 1184.15 274.246 1185.57 274.876C1187.04 275.453 1188.74 275.741 1190.68 275.741C1193.72 275.741 1196 275.059 1197.53 273.696C1199.05 272.28 1199.81 270.576 1199.81 268.583C1199.81 267.01 1199.33 265.699 1198.39 264.65C1197.45 263.601 1196.11 262.71 1194.38 261.976C1192.7 261.242 1190.73 260.534 1188.48 259.852C1186.38 259.223 1184.31 258.541 1182.27 257.807C1180.22 257.073 1178.36 256.155 1176.68 255.054C1175 253.953 1173.67 252.537 1172.67 250.807C1171.73 249.024 1171.25 246.795 1171.25 244.121C1171.25 240.765 1172.07 237.907 1173.69 235.547C1175.37 233.187 1177.65 231.404 1180.54 230.198C1183.42 228.992 1186.75 228.389 1190.52 228.389C1193.72 228.389 1196.61 228.861 1199.18 229.805C1201.75 230.696 1203.9 232.034 1205.63 233.816C1207.41 235.547 1208.72 237.697 1209.56 240.266L1199.73 242.941C1199.47 241.787 1198.89 240.791 1198 239.952C1197.11 239.113 1196.03 238.457 1194.77 237.985C1193.51 237.461 1192.15 237.199 1190.68 237.199C1189.11 237.146 1187.67 237.382 1186.36 237.907C1185.04 238.431 1184 239.191 1183.21 240.188C1182.42 241.184 1182.03 242.338 1182.03 243.649C1182.03 245.117 1182.48 246.297 1183.37 247.188C1184.26 248.027 1185.44 248.761 1186.91 249.391C1188.37 249.968 1190.03 250.544 1191.86 251.121C1194.06 251.75 1196.27 252.485 1198.47 253.324C1200.67 254.11 1202.69 255.133 1204.53 256.391C1206.36 257.597 1207.83 259.144 1208.93 261.032C1210.08 262.92 1210.66 265.306 1210.66 268.19C1210.66 271.231 1209.93 273.984 1208.46 276.449C1207.04 278.913 1204.89 280.88 1202.01 282.348C1199.12 283.816 1195.51 284.551 1191.15 284.551C1187.59 284.551 1184.34 284.026 1181.4 282.977C1178.52 281.929 1176.13 280.408 1174.24 278.415C1172.35 276.37 1171.12 273.958 1170.55 271.179L1180.38 268.426ZM1271.29 237.828H1243.21V251.829H1264.21V260.403H1243.21V275.112H1271.29V284H1232.59V228.94H1271.29V237.828ZM1332.12 228.94H1343.45L1323.24 284H1310.41L1290.28 228.94H1301.6L1316.86 273.145L1332.12 228.94ZM1402.65 237.828H1374.57V251.829H1395.57V260.403H1374.57V275.112H1402.65V284H1363.95V228.94H1402.65V237.828ZM1470.72 228.94V284H1459.87L1435.8 245.772V284H1425.18V228.94H1435.96L1460.11 267.167V228.94H1470.72Z" fill="#292929"/>
<path d="M870.222 228.94H908.921V237.828H880.841V251.829H901.842V260.403H880.841V284H870.222V228.94ZM953.706 284.551C949.825 284.551 946.181 283.869 942.772 282.506C939.364 281.142 936.375 279.228 933.805 276.764C931.288 274.246 929.296 271.284 927.827 267.875C926.359 264.414 925.625 260.612 925.625 256.47C925.625 252.327 926.359 248.552 927.827 245.143C929.296 241.735 931.288 238.772 933.805 236.255C936.375 233.738 939.364 231.798 942.772 230.434C946.181 229.071 949.825 228.389 953.706 228.389C957.639 228.389 961.283 229.071 964.639 230.434C968.048 231.798 971.037 233.738 973.606 236.255C976.176 238.772 978.168 241.735 979.584 245.143C981.052 248.552 981.786 252.327 981.786 256.47C981.786 260.612 981.052 264.414 979.584 267.875C978.168 271.284 976.176 274.246 973.606 276.764C971.037 279.228 968.048 281.142 964.639 282.506C961.283 283.869 957.639 284.551 953.706 284.551ZM953.784 275.505C957.088 275.505 960.025 274.718 962.594 273.145C965.216 271.52 967.261 269.291 968.729 266.459C970.25 263.628 971.01 260.298 971.01 256.47C971.01 252.642 970.25 249.312 968.729 246.48C967.261 243.649 965.216 241.446 962.594 239.873C960.025 238.248 957.088 237.435 953.784 237.435C950.376 237.435 947.361 238.248 944.739 239.873C942.169 241.446 940.15 243.649 938.682 246.48C937.214 249.312 936.48 252.642 936.48 256.47C936.48 260.245 937.214 263.575 938.682 266.459C940.15 269.343 942.169 271.572 944.739 273.145C947.361 274.718 950.376 275.505 953.784 275.505ZM1002.81 228.94H1013.43V263.706C1013.43 266.276 1013.95 268.452 1015 270.235C1016.05 271.965 1017.46 273.276 1019.25 274.168C1021.08 275.059 1023.18 275.505 1025.54 275.505C1027.95 275.505 1030.08 275.059 1031.91 274.168C1033.75 273.276 1035.19 271.965 1036.24 270.235C1037.29 268.452 1037.81 266.276 1037.81 263.706V228.94H1048.43V263.156C1048.43 266.774 1047.8 269.92 1046.54 272.595C1045.28 275.269 1043.55 277.498 1041.35 279.281C1039.2 281.063 1036.74 282.401 1033.96 283.292C1031.23 284.131 1028.37 284.551 1025.38 284.551C1021.4 284.551 1017.67 283.764 1014.21 282.191C1010.8 280.618 1008.05 278.258 1005.95 275.112C1003.86 271.965 1002.81 267.98 1002.81 263.156V228.94ZM1103.8 245.93C1103.8 243.465 1103.04 241.499 1101.52 240.03C1100.05 238.562 1097.75 237.828 1094.6 237.828H1082.88V254.11H1094.6C1096.7 254.11 1098.43 253.796 1099.79 253.166C1101.15 252.485 1102.15 251.541 1102.78 250.335C1103.46 249.076 1103.8 247.608 1103.8 245.93ZM1094.91 228.94C1099.37 228.94 1103.04 229.726 1105.93 231.299C1108.86 232.82 1111.04 234.891 1112.46 237.513C1113.92 240.083 1114.66 242.888 1114.66 245.93C1114.66 247.975 1114.29 250.02 1113.56 252.065C1112.82 254.058 1111.67 255.893 1110.1 257.571C1108.52 259.197 1106.48 260.508 1103.96 261.504C1101.5 262.5 1098.48 262.998 1094.91 262.998H1082.88V284H1072.26V228.94H1094.91ZM1100.89 259.459L1115.76 284H1103.88L1089.64 259.459H1100.89Z" fill="#C48C59"/>
<path d="M248 206C275.614 206 298 228.386 298 256C298 283.614 275.614 306 248 306C220.386 306 198 283.614 198 256C198 228.386 220.386 206 248 206ZM212.756 263C216.138 279.18 230.483 291.333 247.667 291.333C264.851 291.333 279.196 279.18 282.577 263H212.756ZM247.667 220C230.248 220 215.746 232.488 212.624 249H282.709C279.587 232.488 265.086 220 247.667 220Z" fill="#C48C59"/>
</svg>
