<svg width="973" height="166" viewBox="0 0 973 166" fill="none" xmlns="http://www.w3.org/2000/svg">
<path d="M276.075 63.15C272.745 61.08 269.28 59.37 265.68 58.02C262.17 56.58 258.75 55.5 255.42 54.78C252.18 53.97 249.255 53.565 246.645 53.565C243.045 53.565 240.12 54.285 237.87 55.725C235.71 57.075 234.63 59.145 234.63 61.935C234.63 64.545 235.53 66.705 237.33 68.415C239.22 70.035 241.65 71.385 244.62 72.465C247.59 73.455 250.875 74.49 254.475 75.57C258.075 76.56 261.63 77.73 265.14 79.08C268.74 80.43 272.025 82.185 274.995 84.345C278.055 86.415 280.44 89.115 282.15 92.445C283.95 95.685 284.85 99.735 284.85 104.595C284.85 110.715 283.23 115.89 279.99 120.12C276.75 124.35 272.295 127.59 266.625 129.84C261.045 132.09 254.79 133.215 247.86 133.215C242.64 133.215 237.51 132.585 232.47 131.325C227.43 130.065 222.66 128.31 218.16 126.06C213.75 123.72 209.745 121.02 206.145 117.96L214.65 101.22C217.89 104.1 221.445 106.62 225.315 108.78C229.275 110.94 233.235 112.605 237.195 113.775C241.155 114.945 244.8 115.53 248.13 115.53C252.54 115.53 255.96 114.675 258.39 112.965C260.91 111.255 262.17 108.825 262.17 105.675C262.17 102.975 261.27 100.815 259.47 99.195C257.67 97.575 255.285 96.225 252.315 95.145C249.345 93.975 246.06 92.94 242.46 92.04C238.86 91.05 235.26 89.925 231.66 88.665C228.06 87.315 224.775 85.65 221.805 83.67C218.835 81.6 216.405 78.99 214.515 75.84C212.715 72.69 211.815 68.685 211.815 63.825C211.815 58.065 213.345 53.115 216.405 48.975C219.465 44.745 223.74 41.505 229.23 39.255C234.72 36.915 241.11 35.745 248.4 35.745C255.06 35.745 261.54 36.735 267.84 38.715C274.14 40.605 279.63 43.08 284.31 46.14L276.075 63.15ZM357.307 36.15C364.507 36.15 371.167 37.365 377.287 39.795C383.497 42.225 388.897 45.645 393.487 50.055C398.077 54.465 401.632 59.595 404.152 65.445C406.762 71.295 408.067 77.685 408.067 84.615C408.067 91.455 406.762 97.845 404.152 103.785C401.632 109.725 398.077 114.945 393.487 119.445C388.897 123.855 383.497 127.32 377.287 129.84C371.167 132.27 364.507 133.485 357.307 133.485C350.107 133.485 343.402 132.27 337.192 129.84C331.072 127.32 325.717 123.855 321.127 119.445C316.537 114.945 312.937 109.725 310.327 103.785C307.807 97.845 306.547 91.455 306.547 84.615C306.547 77.685 307.807 71.295 310.327 65.445C312.937 59.505 316.537 54.375 321.127 50.055C325.717 45.645 331.072 42.225 337.192 39.795C343.402 37.365 350.107 36.15 357.307 36.15ZM357.577 54.105C353.617 54.105 349.837 54.87 346.237 56.4C342.727 57.93 339.622 60.09 336.922 62.88C334.312 65.67 332.242 68.91 330.712 72.6C329.182 76.29 328.417 80.295 328.417 84.615C328.417 88.935 329.182 92.985 330.712 96.765C332.242 100.455 334.357 103.74 337.057 106.62C339.757 109.41 342.862 111.615 346.372 113.235C349.882 114.765 353.617 115.53 357.577 115.53C361.537 115.53 365.227 114.765 368.647 113.235C372.157 111.615 375.217 109.41 377.827 106.62C380.437 103.74 382.462 100.455 383.902 96.765C385.432 92.985 386.197 88.935 386.197 84.615C386.197 80.295 385.432 76.29 383.902 72.6C382.462 68.91 380.437 65.67 377.827 62.88C375.217 60.09 372.157 57.93 368.647 56.4C365.227 54.87 361.537 54.105 357.577 54.105ZM455.272 93.12C455.272 100.05 457.207 105.54 461.077 109.59C464.947 113.55 470.032 115.53 476.332 115.53C482.452 115.53 487.357 113.55 491.047 109.59C494.827 105.54 496.717 100.05 496.717 93.12V37.5H518.047V93.12C518.047 101.31 516.337 108.465 512.917 114.585C509.587 120.615 504.772 125.295 498.472 128.625C492.262 131.865 484.837 133.485 476.197 133.485C467.557 133.485 460.042 131.865 453.652 128.625C447.352 125.295 442.492 120.615 439.072 114.585C435.652 108.465 433.942 101.31 433.942 93.12V37.5H455.272V93.12ZM540.312 37.5H563.263L589.048 109.725L614.968 37.5H636.973L599.443 132H577.438L540.312 37.5ZM701.883 37.5C714.213 37.5 723.753 40.38 730.503 46.14C737.343 51.81 740.763 59.82 740.763 70.17C740.763 81.06 737.343 89.565 730.503 95.685C723.753 101.715 714.213 104.73 701.883 104.73H682.173V132H660.843V37.5H701.883ZM701.883 87.45C707.733 87.45 712.278 86.1 715.518 83.4C718.848 80.61 720.513 76.425 720.513 70.845C720.513 65.445 718.848 61.395 715.518 58.695C712.278 55.995 707.733 54.645 701.883 54.645H682.173V87.45H701.883ZM699.318 96.765H720.108L743.058 132H718.893L699.318 96.765ZM772.034 37.5H843.989V54.645H793.364V75.975H838.859V93.12H793.364V114.855H845.474V132H772.034V37.5ZM875.709 37.5H895.149L946.584 106.89L941.049 108.78V37.5H961.164V132H941.859L890.424 62.745L896.094 60.855V132H875.709V37.5Z" fill="#FFFFFF"/>
<path d="M148.474 126.697C137.597 119.555 125.544 114.056 112.668 110.556L78.5664 27.8613L44.3418 111.207C31.6438 114.923 19.78 120.591 9.09668 127.864L65.3574 0H93.6318L148.474 126.697Z" fill="#C48C59"/>
<path d="M78.5938 124.191C107.971 124.191 135.175 133.494 157.421 149.314L139.181 165.945C121.707 154.709 100.912 148.191 78.5938 148.191C56.7476 148.191 36.36 154.436 19.1191 165.239L0 149.15C22.2031 133.43 49.3193 124.191 78.5938 124.191Z" fill="#C48C59"/>
</svg>
